BasicSans.glyphspackage
{
glyphname = period;
layers = (
{
layerId = m01;
shapes = (
{
closed = 1;
nodes = (
(330,0,o),
(354,25,o),
(354,63,cs),
(354,100,o),
(332,125,o),
(296,125,cs),
(260,125,o),
(235,101,o),
(235,63,cs),
(235,25,o),
(258,0,o),
(296,0,cs)
);
}
);
width = 600;
}
);
unicode = 46;
}
{
glyphname = zero;
layers = (
{
layerId = m01;
shapes = (
{
closed = 1;
nodes = (
(492,-8,o),
(576,135,o),
(576,350,cs),
(576,565,o),
(492,708,o),
(297,708,cs),
(102,708,o),
(25,565,o),
(25,350,cs),
(25,135,o),
(102,-8,o),
(297,-8,cs)
);
},
{
closed = 1;
nodes = (
(157,82,o),
(130,185,o),
(130,350,cs),
(130,515,o),
(157,618,o),
(297,618,cs),
(437,618,o),
(471,515,o),
(471,350,cs),
(471,185,o),
(437,82,o),
(297,82,cs)
);
}
);
width = 601;
}
);
metricLeft = "=O";
metricRight = "=O";
unicode = 48;
}
{
glyphname = one;
layers = (
{
layerId = m01;
shapes = (
{
closed = 1;
nodes = (
(195,600,o),
(170,575,o),
(0,575,c),
(0,495,l),
(185,495,l),
(185,0,l),
(285,0,l),
(285,700,l),
(195,700,l)
);
}
);
width = 285;
},
{
associatedMasterId = m01;
layerId = "0D482BEB-FDBB-4265-996C-E1DFBC35C223";
name = "26. Jul 23, 16:07";
shapes = (
{
closed = 1;
nodes = (
(225,0,l),
(325,0,l),
(325,700,l),
(225,700,l)
);
},
{
closed = 1;
nodes = (
(40,575,l),
(40,475,l),
(280,475,l),
(280,575,l)
);
}
);
width = 325;
}
);
metricLeft = "=0";
metricRight = "=0";
unicode = 49;
}
{
glyphname = two;
layers = (
{
layerId = m01;
shapes = (
{
closed = 1;
nodes = (
(435,244,o),
(535,376,o),
(535,524,cs),
(535,670,o),
(438,708,o),
(298,708,cs),
(158,708,o),
(60,622,o),
(60,467,c),
(160,462,l),
(160,572,o),
(208,618,o),
(298,618,cs),
(388,618,o),
(435,579,o),
(435,519,cs),
(435,415,o),
(274,245,o),
(51,90,c),
(52,0,l),
(564,0,l),
(564,90,l),
(184,90,l)
);
}
);
width = 600;
}
);
unicode = 50;
}
{
glyphname = three;
layers = (
{
layerId = m01;
shapes = (
{
closed = 1;
nodes = (
(32,288,l),
(24,250,o),
(22,225,o),
(22,207,cs),
(22,92,o),
(108,-8,o),
(298,-8,cs),
(488,-8,o),
(573,92,o),
(573,207,cs),
(573,297,o),
(516,347,o),
(445,379,c),
(496,413,o),
(535,463,o),
(535,524,cs),
(535,629,o),
(438,708,o),
(298,708,cs),
(158,708,o),
(60,629,o),
(60,524,cs),
(60,507,l),
(160,500,l),
(160,519,ls),
(160,579,o),
(208,618,o),
(298,618,cs),
(388,618,o),
(435,579,o),
(435,519,cs),
(435,459,o),
(388,420,o),
(298,420,cs),
(267,420,l),
(267,330,l),
(298,330,ls),
(398,330,o),
(468,302,o),
(468,207,cs),
(468,112,o),
(398,82,o),
(298,82,cs),
(198,82,o),
(127,112,o),
(127,207,cs),
(127,232,o),
(132,256,o),
(137,272,c)
);
}
);
width = 600;
},
{
associatedMasterId = m01;
layerId = "E6CF2B27-1C4E-4EA8-91B3-FE890CB0E394";
name = "26. Jul 23, 17:27";
shapes = (
{
closed = 1;
nodes = (
(32,283,l),
(24,245,o),
(22,220,o),
(22,202,cs),
(22,87,o),
(108,-13,o),
(298,-13,cs),
(488,-13,o),
(573,87,o),
(573,202,cs),
(573,292,o),
(516,347,o),
(445,379,c),
(496,413,o),
(535,463,o),
(535,524,cs),
(535,629,o),
(438,708,o),
(298,708,cs),
(158,708,o),
(60,629,o),
(60,524,cs),
(60,507,l),
(160,500,l),
(160,519,ls),
(160,579,o),
(208,618,o),
(298,618,cs),
(388,618,o),
(435,579,o),
(435,519,cs),
(435,459,o),
(388,420,o),
(298,420,cs),
(267,420,l),
(267,330,l),
(298,330,ls),
(398,330,o),
(468,297,o),
(468,202,cs),
(468,107,o),
(398,77,o),
(298,77,cs),
(198,77,o),
(127,107,o),
(127,202,cs),
(127,227,o),
(132,251,o),
(137,267,c)
);
}
);
width = 600;
}
);
unicode = 51;
}
{
glyphname = four;
layers = (
{
layerId = m01;
shapes = (
{
closed = 1;
nodes = (
(22,176,l),
(365,176,l),
(365,0,l),
(470,0,l),
(470,176,l),
(582,176,l),
(582,266,l),
(470,266,l),
(470,700,l),
(294,700,l),
(22,266,l)
);
},
{
closed = 1;
nodes = (
(365,624,l),
(365,266,l),
(138,266,l)
);
}
);
width = 600;
},
{
associatedMasterId = m01;
layerId = "D939D680-35F1-4778-8DFA-DEC5A1F0792C";
name = "26. Jul 23, 19:58";
shapes = (
{
closed = 1;
nodes = (
(148,286,l),
(399,700,l),
(294,700,l),
(32,286,l)
);
},
{
closed = 1;
nodes = (
(582,196,l),
(582,286,l),
(32,286,l),
(32,196,l)
);
},
{
closed = 1;
nodes = (
(470,0,l),
(470,700,l),
(365,700,l),
(365,0,l)
);
}
);
width = 600;
}
);
unicode = 52;
}
{
glyphname = five;
layers = (
{
layerId = m01;
shapes = (
{
closed = 1;
nodes = (
);
},
{
closed = 1;
nodes = (
(67,415,l),
(148,343,l),
(186,610,l),
(524,610,l),
(524,700,l),
(108,700,l)
);
},
{
closed = 1;
nodes = (
(240,464,o),
(188,447,o),
(130,404,c),
(148,343,l),
(198,373,o),
(248,374,o),
(298,374,cs),
(438,374,o),
(468,302,o),
(468,207,cs),
(468,112,o),
(398,82,o),
(298,82,cs),
(198,82,o),
(137,122,o),
(137,217,c),
(32,227,l),
(32,112,o),
(108,-8,o),
(298,-8,cs),
(488,-8,o),
(573,92,o),
(573,207,cs),
(573,342,o),
(509,464,o),
(298,464,c)
);
}
);
width = 600;
},
{
associatedMasterId = m01;
layerId = "BBEEE38F-9637-43FE-81C5-B650A1D3FA28";
name = "26. Jul 23, 18:50";
shapes = (
{
closed = 1;
nodes = (
(534,465,o),
(298,462,cs),
(235,461,o),
(176,444,o),
(135,396,c),
(176,335,l),
(203,359,o),
(251,371,o),
(298,372,cs),
(411,374,o),
(470,283,o),
(470,205,cs),
(470,118,o),
(398,84,o),
(298,84,cs),
(198,84,o),
(151,124,o),
(151,204,c),
(51,197,l),
(51,83,o),
(108,-6,o),
(298,-6,cs),
(488,-6,o),
(570,85,o),
(570,200,cs),
(570,290,o)
);
},
{
closed = 1;
nodes = (
(78,363,l),
(176,335,l),
(206,610,l),
(524,610,l),
(524,700,l),
(116,700,l)
);
}
);
width = 600;
}
);
unicode = 53;
}
{
glyphname = six;
layers = (
{
layerId = m01;
shapes = (
{
closed = 1;
nodes = (
(573,526,l),
(573,596,o),
(500,729,o),
(310,729,cs),
(120,729,o),
(25,586,o),
(25,371,cs),
(25,156,o),
(115,13,o),
(310,13,cs),
(505,13,o),
(576,120,o),
(576,241,cs),
(576,401,o),
(450,463,o),
(310,463,cs),
(231,463,o),
(153,443,o),
(125,394,c),
(138,593,o),
(210,639,o),
(310,639,cs),
(410,639,o),
(468,593,o),
(468,526,c)
);
},
{
closed = 1;
nodes = (
(476,146,o),
(410,103,o),
(310,103,cs),
(210,103,o),
(151,146,o),
(151,241,c),
(151,336,o),
(210,373,o),
(310,373,cs),
(410,373,o),
(476,336,o),
(476,241,cs)
);
}
);
width = 600;
}
);
unicode = 54;
}
{
glyphname = seven;
layers = (
{
layerId = m01;
shapes = (
{
closed = 1;
nodes = (
(0,700,l),
(0,610,l),
(352,610,l),
(252,502,o),
(175,297,o),
(175,0,c),
(275,0,l),
(275,297,o),
(365,502,o),
(475,610,c),
(477,700,l)
);
}
);
width = 477;
}
);
metricLeft = "=0";
metricRight = "=0";
unicode = 55;
}
{
glyphname = eight;
layers = (
{
layerId = m01;
shapes = (
{
closed = 1;
nodes = (
(491,-13,o),
(576,87,o),
(576,202,cs),
(576,292,o),
(519,347,o),
(448,379,c),
(499,413,o),
(538,463,o),
(538,524,cs),
(538,629,o),
(441,708,o),
(301,708,cs),
(161,708,o),
(63,629,o),
(63,524,cs),
(63,463,o),
(102,413,o),
(154,379,c),
(83,347,o),
(25,292,o),
(25,202,cs),
(25,87,o),
(111,-13,o),
(301,-13,cs)
);
},
{
closed = 1;
nodes = (
(201,77,o),
(130,107,o),
(130,202,cs),
(130,297,o),
(201,330,o),
(301,330,cs),
(401,330,o),
(471,297,o),
(471,202,cs),
(471,107,o),
(401,77,o),
(301,77,cs)
);
},
{
closed = 1;
nodes = (
(211,420,o),
(163,459,o),
(163,519,cs),
(163,579,o),
(211,618,o),
(301,618,cs),
(391,618,o),
(438,579,o),
(438,519,cs),
(438,459,o),
(391,420,o),
(301,420,cs)
);
}
);
width = 601;
},
{
associatedMasterId = m01;
layerId = "24DFDC30-582D-4DA1-AC78-67CF5F70040C";
name = "26. Jul 23, 17:03";
shapes = (
{
closed = 1;
nodes = (
(458,-13,o),
(535,81,o),
(535,196,cs),
(535,341,o),
(408,409,o),
(268,409,cs),
(128,409,o),
(0,341,o),
(0,196,cs),
(0,81,o),
(78,-13,o),
(268,-13,cs)
);
},
{
closed = 1;
nodes = (
(168,77,o),
(100,116,o),
(100,196,cs),
(100,276,o),
(178,319,o),
(268,319,cs),
(358,319,o),
(435,276,o),
(435,196,cs),
(435,116,o),
(368,77,o),
(268,77,cs)
);
},
{
closed = 1;
nodes = (
(408,341,o),
(495,420,o),
(495,525,cs),
(495,630,o),
(408,708,o),
(268,708,cs),
(128,708,o),
(40,630,o),
(40,525,cs),
(40,420,o),
(128,341,o),
(268,341,cs)
);
},
{
closed = 1;
nodes = (
(198,431,o),
(140,450,o),
(140,520,cs),
(140,590,o),
(198,618,o),
(268,618,cs),
(338,618,o),
(395,590,o),
(395,520,cs),
(395,450,o),
(338,431,o),
(268,431,cs)
);
}
);
width = 535;
}
);
metricLeft = "=O";
metricRight = "=O";
unicode = 56;
}
{
glyphname = nine;
layers = (
{
layerId = m01;
shapes = (
{
closed = 1;
nodes = (
(25,195,l),
(25,125,o),
(98,-8,o),
(288,-8,cs),
(478,-8,o),
(573,135,o),
(573,350,cs),
(573,565,o),
(483,708,o),
(288,708,cs),
(93,708,o),
(22,601,o),
(22,480,cs),
(22,320,o),
(148,258,o),
(288,258,cs),
(367,258,o),
(445,278,o),
(473,327,c),
(460,128,o),
(388,82,o),
(288,82,cs),
(188,82,o),
(130,128,o),
(130,195,c)
);
},
{
closed = 1;
nodes = (
(122,575,o),
(188,618,o),
(288,618,cs),
(388,618,o),
(447,575,o),
(447,480,c),
(447,385,o),
(388,348,o),
(288,348,cs),
(188,348,o),
(122,385,o),
(122,480,cs)
);
}
);
width = 600;
},
{
associatedMasterId = m01;
layerId = "80F7266D-0794-4E93-AF05-85FC9D56801C";
name = "26. Jul 23, 19:32";
shapes = (
{
closed = 1;
nodes = (
(22,207,l),
(22,92,o),
(104,-8,o),
(294,-8,cs),
(489,-8,o),
(554,130,o),
(554,345,c),
(554,560,o),
(489,708,o),
(294,708,cs),
(99,708,o),
(22,641,o),
(22,480,cs),
(22,320,o),
(170,248,o),
(294,248,cs),
(410,248,o),
(490,296,o),
(490,461,c),
(446,474,l),
(446,361,o),
(384,341,o),
(294,341,cs),
(204,341,o),
(120,366,o),
(120,480,cs),
(120,576,o),
(154,618,o),
(294,618,cs),
(434,618,o),
(452,536,o),
(452,345,c),
(452,180,o),
(434,82,o),
(294,82,cs),
(154,82,o),
(130,160,o),
(130,207,c)
);
}
);
width = 600;
}
);
unicode = 57;
}
{
glyphname = A;
kernLeft = A;
kernRight = A;
layers = (
{
layerId = m01;
shapes = (
{
closed = 1;
nodes = (
(150,0,l),
(379,591,l),
(610,0,l),
(715,0,l),
(451,701,l),
(311,701,l),
(45,0,l)
);
},
{
closed = 1;
nodes = (
(187,210,l),
(567,210,l),
(567,300,l),
(187,300,l)
);
}
);
userData = {
com.hugojourdan.ColorFlow = {
"0" = 0;
"1" = 0;
"10" = 0;
"11" = 0;
"2" = 0;
"3" = 0;
"4" = 0;
"5" = 0;
"6" = 0;
"7" = 0;
"8" = 0;
"9" = 0;
};
};
width = 760;
}
);
metricLeft = "=H";
metricRight = "=H";
unicode = 65;
}
{
glyphname = B;
kernLeft = H;
kernRight = B;
layers = (
{
layerId = m01;
shapes = (
{
closed = 1;
nodes = (
(302,0,ls),
(478,0,o),
(563,67,o),
(563,212,cs),
(563,276,o),
(536,334,o),
(461,373,c),
(509,409,o),
(536,456,o),
(536,524,cs),
(536,640,o),
(444,700,o),
(302,700,cs),
(45,700,l),
(45,0,l)
);
},
{
closed = 1;
nodes = (
(150,327,l),
(302,327,ls),
(398,327,o),
(458,277,o),
(458,212,cs),
(458,136,o),
(413,91,o),
(302,90,cs),
(150,89,l)
);
},
{
closed = 1;
nodes = (
(150,610,l),
(302,610,ls),
(374,610,o),
(431,580,o),
(431,524,cs),
(431,452,o),
(391,417,o),
(302,417,cs),
(150,417,l)
);
}
);
userData = {
com.hugojourdan.ColorFlow = {
"0" = 0;
"1" = 0;
"10" = 0;
"11" = 0;
"2" = 0;
"3" = 0;
"4" = 0;
"5" = 0;
"6" = 0;
"7" = 0;
"8" = 0;
"9" = 0;
};
};
width = 588;
}
);
metricLeft = "=H";
metricRight = "=R";
unicode = 66;
}
{
glyphname = C;
layers = (
{
layerId = m01;
shapes = (
{
closed = 1;
nodes = (
(571,260,l),
(553,187,o),
(487,82,o),
(347,82,cs),
(207,82,o),
(130,185,o),
(130,350,cs),
(130,515,o),
(207,618,o),
(347,618,cs),
(487,618,o),
(556,517,o),
(571,435,c),
(676,452,l),
(655,610,o),
(542,708,o),
(347,708,cs),
(152,708,o),
(25,565,o),
(25,350,cs),
(25,135,o),
(152,-8,o),
(347,-8,cs),
(542,-8,o),
(649,97,o),
(676,243,c)
);
}
);
userData = {
com.hugojourdan.ColorFlow = {
"0" = 0;
"1" = 0;
"10" = 0;
"11" = 0;
"2" = 0;
"3" = 0;
"4" = 0;
"5" = 0;
"6" = 0;
"7" = 0;
"8" = 0;
"9" = 0;
};
};
width = 691;
}
);
metricLeft = "=O";
metricRight = "=O";
unicode = 67;
}
{
glyphname = D;
kernLeft = H;
kernRight = D;
layers = (
{
layerId = m01;
shapes = (
{
closed = 1;
nodes = (
(40,0,l),
(269,0,ls),
(464,0,o),
(606,140,o),
(606,350,cs),
(606,560,o),
(465,700,o),
(270,700,cs),
(40,700,l)
);
},
{
closed = 1;
nodes = (
(145,610,l),
(270,610,ls),
(403,610,o),
(501,510,o),
(501,350,cs),
(501,190,o),
(402,90,o),
(269,90,cs),
(145,90,l)
);
}
);
userData = {
com.hugojourdan.ColorFlow = {
"0" = 0;
"1" = 0;
"10" = 0;
"11" = 0;
"2" = 0;
"3" = 0;
"4" = 0;
"5" = 0;
"6" = 0;
"7" = 0;
"8" = 0;
"9" = 0;
};
};
width = 600;
}
);
unicode = 68;
}
{
glyphname = E;
kernLeft = H;
kernRight = E;
layers = (
{
layerId = m01;
shapes = (
{
closed = 1;
nodes = (
(45,0,l),
(150,0,l),
(150,700,l),
(45,700,l)
);
},
{
closed = 1;
nodes = (
(150,319,l),
(457,319,l),
(457,409,l),
(150,409,l)
);
},
{
closed = 1;
nodes = (
(150,610,l),
(477,610,l),
(477,700,l),
(150,700,l)
);
},
{
closed = 1;
nodes = (
(150,0,l),
(477,0,l),
(477,90,l),
(150,90,l)
);
}
);
userData = {
com.hugojourdan.ColorFlow = {
"0" = 0;
"1" = 0;
"10" = 0;
"11" = 0;
"2" = 0;
"3" = 0;
"4" = 0;
"5" = 0;
"6" = 0;
"7" = 0;
"8" = 0;
"9" = 0;
};
};
width = 522;
}
);
metricLeft = "=H";
metricRight = "=H";
unicode = 69;
}
{
glyphname = F;
kernLeft = H;
kernRight = F;
layers = (
{
layerId = m01;
shapes = (
{
closed = 1;
nodes = (
(40,0,l),
(145,0,l),
(145,700,l),
(40,700,l)
);
},
{
closed = 1;
nodes = (
(145,328,l),
(392,328,l),
(392,418,l),
(145,418,l)
);
},
{
closed = 1;
nodes = (
(145,610,l),
(452,610,l),
(452,700,l),
(145,700,l)
);
}
);
userData = {
com.hugojourdan.ColorFlow = {
"0" = 0;
"1" = 0;
"10" = 0;
"11" = 0;
"2" = 0;
"3" = 0;
"4" = 0;
"5" = 0;
"6" = 0;
"7" = 0;
"8" = 0;
"9" = 0;
};
};
width = 492;
}
);
metricLeft = "=H";
metricRight = "=H";
unicode = 70;
}
{
glyphname = G;
layers = (
{
layerId = m01;
shapes = (
{
closed = 1;
nodes = (
(676,369,l),
(334,369,l),
(334,279,l),
(571,279,l),
(570,184,o),
(487,82,o),
(347,82,cs),
(207,82,o),
(130,185,o),
(130,350,cs),
(130,515,o),
(207,618,o),
(347,618,cs),
(466,618,o),
(557,543,o),
(575,461,c),
(676,478,l),
(631,636,o),
(488,708,o),
(347,708,cs),
(152,708,o),
(25,565,o),
(25,350,cs),
(25,135,o),
(152,-8,o),
(347,-8,cs),
(542,-8,o),
(676,135,o),
(676,279,cs)
);
}
);
userData = {
com.hugojourdan.ColorFlow = {
"0" = 0;
"1" = 0;
"10" = 0;
"11" = 0;
"2" = 0;
"3" = 0;
"4" = 0;
"5" = 0;
"6" = 0;
"7" = 0;
"8" = 0;
"9" = 0;
};
};
width = 701;
},
{
associatedMasterId = m01;
layerId = "6CD58B4D-0AF9-4DBA-A6FE-9DFBAF1342F0";
name = "19. Jul 23, 16:08";
shapes = (
{
closed = 1;
nodes = (
(571,280,l),
(571,185,o),
(487,82,o),
(347,82,cs),
(207,82,o),
(130,185,o),
(130,350,cs),
(130,515,o),
(207,618,o),
(347,618,cs),
(487,618,o),
(558,537,o),
(571,455,c),
(676,472,l),
(636,630,o),
(542,708,o),
(347,708,cs),
(152,708,o),
(25,565,o),
(25,350,cs),
(25,135,o),
(152,-8,o),
(347,-8,cs),
(542,-8,o),
(676,135,o),
(676,279,c)
);
},
{
closed = 1;
nodes = (
(354,279,l),
(676,279,l),
(676,379,l),
(354,379,l)
);
}
);
userData = {
com.hugojourdan.ColorFlow = {
"0" = 0;
"1" = 0;
"10" = 0;
"11" = 0;
"2" = 0;
"3" = 0;
"4" = 0;
"5" = 0;
"6" = 0;
"7" = 0;
"8" = 0;
"9" = 0;
};
};
width = 701;
}
);
metricLeft = "=O";
metricRight = "=O";
unicode = 71;
}
{
glyphname = H;
layers = (
{
layerId = m01;
shapes = (
{
closed = 1;
nodes = (
(456,0,l),
(561,0,l),
(561,700,l),
(456,700,l)
);
},
{
closed = 1;
nodes = (
(40,0,l),
(145,0,l),
(145,700,l),
(40,700,l)
);
},
{
closed = 1;
nodes = (
(140,328,l),
(462,328,l),
(462,418,l),
(140,418,l)
);
}
);
userData = {
com.hugojourdan.ColorFlow = {
"0" = 0;
"1" = 0;
"10" = 0;
"11" = 0;
"2" = 0;
"3" = 0;
"4" = 0;
"5" = 0;
"6" = 0;
"7" = 0;
"8" = 0;
"9" = 0;
};
};
width = 601;
}
);
metricLeft = "=I";
metricRight = "=I";
unicode = 72;
}
{
glyphname = I;
kernLeft = I;
kernRight = I;
layers = (
{
layerId = m01;
shapes = (
{
closed = 1;
nodes = (
(45,0,l),
(150,0,l),
(150,700,l),
(45,700,l)
);
}
);
userData = {
com.hugojourdan.ColorFlow = {
"0" = 0;
"1" = 0;
"10" = 0;
"11" = 0;
"2" = 0;
"3" = 0;
"4" = 0;
"5" = 0;
"6" = 0;
"7" = 0;
"8" = 0;
"9" = 0;
};
};
width = 195;
}
);
metricLeft = "=i+10";
metricRight = "=i+10";
unicode = 73;
}
{
glyphname = J;
layers = (
{
layerId = m01;
shapes = (
{
closed = 1;
nodes = (
(456,260,l),
(456,132,o),
(411,92,o),
(346,92,c),
(280,92,o),
(216,133,o),
(216,225,c),
(111,225,l),
(111,88,o),
(194,-8,o),
(354,-8,c),
(558,-8,o),
(561,151,o),
(561,240,c),
(561,700,l),
(456,700,l)
);
}
);
userData = {
com.hugojourdan.ColorFlow = {
"0" = 0;
"1" = 0;
"10" = 0;
"11" = 0;
"2" = 0;
"3" = 0;
"4" = 0;
"5" = 0;
"6" = 0;
"7" = 0;
"8" = 0;
"9" = 0;
};
};
width = 600;
}
);
unicode = 74;
}
{
glyphname = K;
layers = (
{
layerId = m01;
shapes = (
{
closed = 1;
nodes = (
(416,0,l),
(521,0,l),
(262,348,l),
(529,699,l),
(424,699,l),
(146,348,l)
);
},
{
closed = 1;
nodes = (
(65,0,l),
(170,0,l),
(170,700,l),
(65,700,l)
);
}
);
userData = {
com.hugojourdan.ColorFlow = {
"0" = 0;
"1" = 0;
"10" = 0;
"11" = 0;
"2" = 0;
"3" = 0;
"4" = 0;
"5" = 0;
"6" = 0;
"7" = 0;
"8" = 0;
"9" = 0;
};
};
width = 600;
}
);
unicode = 75;
}
{
glyphname = L;
kernLeft = H;
kernRight = L;
layers = (
{
layerId = m01;
shapes = (
{
closed = 1;
nodes = (
(45,0,l),
(150,0,l),
(150,700,l),
(45,700,l)
);
},
{
closed = 1;
nodes = (
(150,0,l),
(477,0,l),
(477,90,l),
(150,90,l)
);
}
);
userData = {
com.hugojourdan.ColorFlow = {
"0" = 0;
"1" = 0;
"10" = 0;
"11" = 0;
"2" = 0;
"3" = 0;
"4" = 0;
"5" = 0;
"6" = 0;
"7" = 0;
"8" = 0;
"9" = 0;
};
};
width = 522;
}
);
metricLeft = "=H";
metricRight = "=H";
unicode = 76;
}
{
glyphname = M;
layers = (
{
layerId = m01;
shapes = (
{
closed = 1;
nodes = (
(438,0,l),
(626,511,l),
(626,0,l),
(731,0,l),
(731,700,l),
(581,700,l),
(386,142,l),
(170,700,l),
(40,700,l),
(40,0,l),
(145,0,l),
(145,511,l),
(333,0,l)
);
}
);
userData = {
com.hugojourdan.ColorFlow = {
"0" = 0;
"1" = 0;
"10" = 0;
"11" = 0;
"2" = 0;
"3" = 0;
"4" = 0;
"5" = 0;
"6" = 0;
"7" = 0;
"8" = 0;
"9" = 0;
};
};
width = 771;
}
);
metricLeft = "=H";
metricRight = "=H";
unicode = 77;
}
{
glyphname = N;
layers = (
{
layerId = m01;
shapes = (
{
closed = 1;
nodes = (
(486,189,l),
(145,700,l),
(40,700,l),
(40,0,l),
(145,0,l),
(145,511,l),
(486,0,l),
(591,0,l),
(591,700,l),
(486,700,l)
);
}
);
userData = {
com.hugojourdan.ColorFlow = {
"0" = 0;
"1" = 0;
"10" = 0;
"11" = 0;
"2" = 0;
"3" = 0;
"4" = 0;
"5" = 0;
"6" = 0;
"7" = 0;
"8" = 0;
"9" = 0;
};
};
width = 631;
}
);
metricLeft = "=H";
metricRight = "=H";
unicode = 78;
}
{
glyphname = O;
kernLeft = O;
kernRight = O;
layers = (
{
layerId = m01;
shapes = (
{
closed = 1;
nodes = (
(542,-8,o),
(676,135,o),
(676,350,cs),
(676,565,o),
(542,708,o),
(347,708,cs),
(152,708,o),
(25,565,o),
(25,350,cs),
(25,135,o),
(152,-8,o),
(347,-8,cs)
);
},
{
closed = 1;
nodes = (
(207,82,o),
(130,185,o),
(130,350,cs),
(130,515,o),
(207,618,o),
(347,618,cs),
(487,618,o),
(571,515,o),
(571,350,cs),
(571,185,o),
(487,82,o),
(347,82,cs)
);
}
);
userData = {
com.hugojourdan.ColorFlow = {
"0" = 0;
"1" = 0;
"10" = 0;
"11" = 0;
"2" = 0;
"3" = 0;
"4" = 0;
"5" = 0;
"6" = 0;
"7" = 0;
"8" = 0;
"9" = 0;
};
};
width = 701;
}
);
metricLeft = "=o+10";
metricRight = "=o+10";
unicode = 79;
}
{
glyphname = P;
kernLeft = H;
kernRight = P;
layers = (
{
layerId = m01;
shapes = (
{
closed = 1;
nodes = (
(45,0,l),
(150,0,l),
(150,700,l),
(45,700,l)
);
},
{
closed = 1;
nodes = (
(150,288,l),
(312,288,l),
(312,378,l),
(150,378,l)
);
},
{
closed = 1;
nodes = (
(150,610,l),
(312,610,l),
(312,700,l),
(150,700,l)
);
},
{
closed = 1;
nodes = (
(312,610,l),
(378,610,o),
(436,566,o),
(436,495,c),
(436,425,o),
(379,380,o),
(312,378,c),
(312,288,l),
(431,290,o),
(536,344,o),
(536,495,cs),
(536,646,o),
(431,700,o),
(312,700,c)
);
}
);
userData = {
com.hugojourdan.ColorFlow = {
"0" = 0;
"1" = 0;
"10" = 0;
"11" = 0;
"2" = 0;
"3" = 0;
"4" = 0;
"5" = 0;
"6" = 0;
"7" = 0;
"8" = 0;
"9" = 0;
};
};
width = 561;
},
{
associatedMasterId = m01;
layerId = "767DA48E-15D8-4720-A877-93C1F22FA51D";
name = "19. Jul 23, 15:23";
shapes = (
{
closed = 1;
nodes = (
(40,0,l),
(145,0,l),
(145,700,l),
(40,700,l)
);
},
{
closed = 1;
nodes = (
(145,288,l),
(307,288,l),
(307,378,l),
(145,378,l)
);
},
{
closed = 1;
nodes = (
(145,610,l),
(307,610,l),
(307,700,l),
(145,700,l)
);
},
{
closed = 1;
nodes = (
(307,610,l),
(373,610,o),
(431,569,o),
(431,486,c),
(431,409,o),
(374,380,o),
(307,378,c),
(307,288,l),
(426,290,o),
(531,335,o),
(531,486,cs),
(531,637,o),
(426,700,o),
(307,700,c)
);
}
);
userData = {
com.hugojourdan.ColorFlow = {
"0" = 0;
"1" = 0;
"10" = 0;
"11" = 0;
"2" = 0;
"3" = 0;
"4" = 0;
"5" = 0;
"6" = 0;
"7" = 0;
"8" = 0;
"9" = 0;
};
};
width = 556;
}
);
metricLeft = "=H";
metricRight = "=O";
unicode = 80;
}
{
color = 1;
glyphname = Q;
kernLeft = O;
kernRight = Q;
layers = (
{
layerId = m01;
shapes = (
{
closed = 1;
nodes = (
(544,-8,o),
(676,135,o),
(676,350,cs),
(676,566,o),
(544,710,o),
(347,710,cs),
(154,710,o),
(25,566,o),
(25,350,cs),
(25,135,o),
(154,-8,o),
(347,-8,cs)
);
},
{
closed = 1;
nodes = (
(215,82,o),
(130,181,o),
(130,350,cs),
(130,513,o),
(211,620,o),
(347,620,cs),
(482,620,o),
(571,519,o),
(571,350,cs),
(571,188,o),
(488,82,o),
(347,82,cs)
);
},
{
closed = 1;
nodes = (
(362,168,l),
(606,-75,l),
(676,-3,l),
(432,241,l)
);
}
);
userData = {
com.hugojourdan.ColorFlow = {
"0" = 0;
"1" = 0;
"10" = 0;
"11" = 0;
"2" = 0;
"3" = 0;
"4" = 0;
"5" = 0;
"6" = 0;
"7" = 0;
"8" = 0;
"9" = 0;
};
};
width = 701;
}
);
metricRight = "=O";
unicode = 81;
}
{
glyphname = R;
kernLeft = H;
kernRight = R;
layers = (
{
layerId = m01;
shapes = (
{
closed = 1;
nodes = (
(45,0,l),
(150,0,l),
(150,700,l),
(45,700,l)
);
},
{
closed = 1;
nodes = (
(150,288,l),
(312,288,l),
(312,378,l),
(150,378,l)
);
},
{
closed = 1;
nodes = (
(150,610,l),
(312,610,l),
(312,700,l),
(150,700,l)
);
},
{
closed = 1;
nodes = (
(312,610,l),
(378,610,o),
(436,569,o),
(436,486,c),
(436,409,o),
(379,380,o),
(312,378,c),
(312,288,l),
(431,290,o),
(536,335,o),
(536,486,cs),
(536,637,o),
(431,700,o),
(312,700,c)
);
},
{
closed = 1;
nodes = (
(412,1,l),
(537,0,l),
(354,305,l),
(239,306,l)
);
}
);
userData = {
com.hugojourdan.ColorFlow = {
"0" = 0;
"1" = 0;
"10" = 0;
"11" = 0;
"2" = 0;
"3" = 0;
"4" = 0;
"5" = 0;
"6" = 0;
"7" = 0;
"8" = 0;
"9" = 0;
};
};
width = 562;
}
);
metricLeft = "=P";
metricRight = "=P";
unicode = 82;
}
{
color = 1;
glyphname = S;
kernLeft = S;
kernRight = S;
layers = (
{
layerId = m01;
shapes = (
{
closed = 1;
nodes = (
(20,242,o),
(448,352,o),
(448,195,c),
(448,134,o),
(381,93,o),
(275,93,cs),
(185,93,o),
(120,137,o),
(120,206,c),
(15,199,l),
(15,74,o),
(108,3,o),
(275,3,cs),
(448,3,o),
(553,88,o),
(553,209,cs),
(553,451,o),
(125,371,o),
(125,513,c),
(126,573,o),
(202,608,o),
(275,608,cs),
(372,608,o),
(446,532,o),
(446,463,c),
(551,470,l),
(551,594,o),
(448,698,o),
(275,698,cs),
(101,698,o),
(20,618,o),
(20,499,c)
);
}
);
userData = {
com.hugojourdan.ColorFlow = {
"0" = 0;
"1" = 0;
"10" = 0;
"11" = 0;
"2" = 0;
"3" = 0;
"4" = 0;
"5" = 0;
"6" = 0;
"7" = 0;
"8" = 0;
"9" = 0;
};
};
width = 568;
}
);
metricLeft = "=s";
metricRight = "=s";
unicode = 83;
}
{
glyphname = U;
layers = (
{
layerId = m01;
shapes = (
{
closed = 1;
nodes = (
(456,260,l),
(456,133,o),
(373,100,o),
(298,100,c),
(223,100,o),
(145,133,o),
(145,260,c),
(145,700,l),
(40,700,l),
(40,240,l),
(40,103,o),
(141,0,o),
(296,0,c),
(451,0,o),
(561,101,o),
(561,240,c),
(561,700,l),
(456,700,l)
);
}
);
userData = {
com.hugojourdan.ColorFlow = {
"0" = 0;
"1" = 0;
"10" = 0;
"11" = 0;
"2" = 0;
"3" = 0;
"4" = 0;
"5" = 0;
"6" = 0;
"7" = 0;
"8" = 0;
"9" = 0;
};
};
width = 600;
}
);
unicode = 85;
}
{
glyphname = V;
layers = (
{
layerId = m01;
shapes = (
{
closed = 1;
nodes = (
(278,0,l),
(418,0,l),
(682,700,l),
(577,700,l),
(346,110,l),
(117,701,l),
(12,701,l)
);
}
);
userData = {
com.hugojourdan.ColorFlow = {
"0" = 0;
"1" = 0;
"10" = 0;
"11" = 0;
"2" = 0;
"3" = 0;
"4" = 0;
"5" = 0;
"6" = 0;
"7" = 0;
"8" = 0;
"9" = 0;
};
};
width = 692;
}
);
metricLeft = "=v";
metricRight = "=v";
unicode = 86;
}
{
glyphname = W;
layers = (
{
layerId = m01;
shapes = (
{
closed = 1;
nodes = (
(163,0,l),
(303,0,l),
(440,548,l),
(558,0,l),
(698,0,l),
(884,699,l),
(779,699,l),
(626,110,l),
(512,700,l),
(382,700,l),
(243,110,l),
(115,700,l),
(10,700,l)
);
}
);
userData = {
com.hugojourdan.ColorFlow = {
"0" = 0;
"1" = 0;
"10" = 0;
"11" = 0;
"2" = 0;
"3" = 0;
"4" = 0;
"5" = 0;
"6" = 0;
"7" = 0;
"8" = 0;
"9" = 0;
};
};
width = 894;
},
{
associatedMasterId = m01;
layerId = "0084DC26-9980-463B-9F41-BEB6D52AE52E";
name = "14. Jun 23, 11:30";
shapes = (
{
closed = 1;
nodes = (
(252,0,l),
(391,0,l),
(503,570,l),
(637,0,l),
(776,0,l),
(989,700,l),
(884,700,l),
(715,110,l),
(569,700,l),
(430,700,l),
(315,110,l),
(115,701,l),
(10,701,l)
);
}
);
userData = {
com.hugojourdan.ColorFlow = {
"0" = 0;
"1" = 0;
"10" = 0;
"11" = 0;
"2" = 0;
"3" = 0;
"4" = 0;
"5" = 0;
"6" = 0;
"7" = 0;
"8" = 0;
"9" = 0;
};
};
width = 999;
}
);
metricLeft = "=V";
metricRight = "=V";
unicode = 87;
}
{
glyphname = X;
kernLeft = X;
kernRight = X;
layers = (
{
layerId = m01;
shapes = (
{
closed = 1;
nodes = (
(247,351,l),
(3,0,l),
(126,0,l),
(310,256,l),
(491,0,l),
(608,0,l),
(371,351,l),
(605,700,l),
(484,700,l),
(310,432,l),
(122,700,l),
(0,700,l)
);
}
);
userData = {
com.hugojourdan.ColorFlow = {
"0" = 0;
"1" = 0;
"10" = 0;
"11" = 0;
"2" = 0;
"3" = 0;
"4" = 0;
"5" = 0;
"6" = 0;
"7" = 0;
"8" = 0;
"9" = 0;
};
};
width = 608;
}
);
metricLeft = "=V";
metricRight = "=V";
unicode = 88;
}
{
glyphname = Y;
layers = (
{
layerId = m01;
shapes = (
{
closed = 1;
nodes = (
(294,260,l),
(295,260,l),
(295,0,l),
(400,0,l),
(400,260,l),
(670,700,l),
(565,700,l),
(346,351,l),
(145,701,l),
(40,701,l)
);
}
);
userData = {
com.hugojourdan.ColorFlow = {
"0" = 0;
"1" = 0;
"10" = 0;
"11" = 0;
"2" = 0;
"3" = 0;
"4" = 0;
"5" = 0;
"6" = 0;
"7" = 0;
"8" = 0;
"9" = 0;
};
};
width = 710;
}
);
metricLeft = "=V";
metricRight = "=V";
unicode = 89;
}
{
glyphname = Z;
kernLeft = Z;
kernRight = Z;
layers = (
{
layerId = m01;
shapes = (
{
closed = 1;
nodes = (
(168,90,l),
(582,617,l),
(582,699,l),
(51,699,l),
(51,609,l),
(460,609,l),
(51,90,l),
(52,0,l),
(564,0,l),
(564,90,l)
);
}
);
userData = {
com.hugojourdan.ColorFlow = {
"0" = 0;
"1" = 0;
"10" = 0;
"11" = 0;
"2" = 0;
"3" = 0;
"4" = 0;
"5" = 0;
"6" = 0;
"7" = 0;
"8" = 0;
"9" = 0;
};
};
width = 600;
}
);
unicode = 90;
}
{
color = 1;
glyphname = a;
layers = (
{
layerId = m01;
shapes = (
{
closed = 1;
nodes = (
(332,0,l),
(432,0,l),
(432,338,ls),
(432,434,o),
(353,508,o),
(224,508,cs),
(106,508,o),
(15,448,o),
(15,324,c),
(115,324,l),
(115,383,o),
(164,425,o),
(224,425,cs),
(284,425,o),
(332,383,o),
(332,333,c)
);
},
{
closed = 1;
nodes = (
(108,308,o),
(16,236,o),
(16,128,cs),
(16,27,o),
(97,-8,o),
(173,-8,cs),
(269,-8,o),
(346,78,o),
(346,197,c),
(332,182,l),
(332,136,o),
(295,94,o),
(240,76,cs),
(161,50,o),
(97,81,o),
(97,139,cs),
(97,216,o),
(230,229,o),
(349,229,c),
(349,308,l)
);
}
);
userData = {
com.hugojourdan.ColorFlow = {
"0" = 0;
"1" = 0;
"10" = 0;
"11" = 0;
"2" = 0;
"3" = 0;
"4" = 0;
"5" = 0;
"6" = 0;
"7" = 0;
"8" = 0;
"9" = 0;
};
};
width = 458;
}
);
metricLeft = "=c";
metricRight = "=n";
unicode = 97;
}
{
glyphname = b;
layers = (
{
layerId = m01;
shapes = (
{
closed = 1;
nodes = (
(30,0,l),
(130,0,l),
(130,800,l),
(30,800,l)
);
},
{
closed = 1;
nodes = (
(434,-8,o),
(492,90,o),
(492,248,cs),
(492,398,o),
(414,508,o),
(284,508,cs),
(132,508,o),
(112,411,o),
(112,250,cs),
(112,104,o),
(150,-8,o),
(284,-8,cs)
);
},
{
closed = 1;
nodes = (
(185,72,o),
(130,146,o),
(130,250,cs),
(130,353,o),
(174,428,o),
(251,428,cs),
(338,428,o),
(391,361,o),
(392,248,cs),
(391,140,o),
(353,72,o),
(263,72,cs)
);
}
);
width = 507;
}
);
metricLeft = "=l";
metricRight = "=o";
unicode = 98;
}
{
glyphname = c;
layers = (
{
layerId = m01;
shapes = (
{
closed = 1;
nodes = (
(388,193,l),
(378,124,o),
(331,72,o),
(251,72,cs),
(173,72,o),
(115,146,o),
(115,250,cs),
(115,353,o),
(177,428,o),
(254,428,cs),
(332,428,o),
(379,374,o),
(388,291,c),
(487,304,l),
(471,420,o),
(380,508,o),
(254,508,cs),
(112,508,o),
(15,411,o),
(15,250,cs),
(15,104,o),
(108,-8,o),
(251,-8,cs),
(375,-8,o),
(466,73,o),
(486,181,c)
);
}
);
userData = {
com.hugojourdan.ColorFlow = {
"0" = 0;
"1" = 0;
"10" = 0;
"11" = 0;
"2" = 0;
"3" = 0;
"4" = 0;
"5" = 0;
"6" = 0;
"7" = 0;
"8" = 0;
"9" = 0;
};
};
width = 502;
}
);
metricLeft = "=o";
metricRight = "=o";
unicode = 99;
}
{
glyphname = d;
layers = (
{
layerId = m01;
shapes = (
{
closed = 1;
nodes = (
(377,800,l),
(377,0,l),
(477,0,l),
(477,800,l)
);
},
{
closed = 1;
nodes = (
(372,-8,o),
(395,104,o),
(395,250,cs),
(395,411,o),
(353,508,o),
(223,508,cs),
(83,508,o),
(15,400,o),
(15,250,cs),
(15,92,o),
(83,-8,o),
(223,-8,cs)
);
},
{
closed = 1;
nodes = (
(153,72,o),
(115,140,o),
(115,250,cs),
(115,360,o),
(153,428,o),
(243,428,cs),
(338,428,o),
(377,353,o),
(377,250,cs),
(377,146,o),
(338,72,o),
(243,72,cs)
);
}
);
userData = {
com.hugojourdan.ColorFlow = {
"0" = 0;
"1" = 0;
"10" = 0;
"11" = 0;
"2" = 0;
"3" = 0;
"4" = 0;
"5" = 0;
"6" = 0;
"7" = 0;
"8" = 0;
"9" = 0;
};
};
width = 507;
}
);
metricLeft = "=o";
metricRight = "=l";
unicode = 100;
}
{
glyphname = e;
layers = (
{
layerId = m01;
shapes = (
{
closed = 1;
nodes = (
(385,182,l),
(375,117,o),
(331,72,o),
(251,72,cs),
(173,72,o),
(115,146,o),
(115,250,cs),
(115,353,o),
(177,428,o),
(254,428,cs),
(327,428,o),
(368,389,o),
(381,316,c),
(94,316,l),
(94,236,l),
(480,236,l),
(484,256,o),
(484,275,o),
(483,295,cs),
(477,420,o),
(380,508,o),
(254,508,cs),
(112,508,o),
(15,411,o),
(15,250,cs),
(15,104,o),
(108,-8,o),
(251,-8,cs),
(375,-8,o),
(461,66,o),
(481,170,c)
);
}
);
width = 499;
}
);
metricLeft = "=c";
metricRight = "=c";
unicode = 101;
}
{
glyphname = f;
layers = (
{
layerId = m01;
shapes = (
{
closed = 1;
nodes = (
(334,768,o),
(296,793,o),
(257,793,cs),
(140,793,o),
(83,742,o),
(83,626,cs),
(83,-1,l),
(183,-1,l),
(183,621,l),
(183,686,o),
(211,713,o),
(286,713,cs),
(317,713,o),
(346,689,o),
(356,678,c),
(356,741,l)
);
},
{
closed = 1;
nodes = (
(349,416,l),
(349,496,l),
(-1,496,l),
(-1,416,l)
);
}
);
userData = {
com.hugojourdan.ColorFlow = {
"0" = 0;
"1" = 0;
"10" = 0;
"11" = 0;
"2" = 0;
"3" = 0;
"4" = 0;
"5" = 0;
"6" = 0;
"7" = 0;
"8" = 0;
"9" = 0;
};
};
width = 306;
}
);
metricRight = "=l-80";
unicode = 102;
}
{
color = 3;
glyphname = g;
kernLeft = g;
kernRight = g;
layers = (
{
layerId = m01;
shapes = (
{
closed = 1;
nodes = (
(377,500,l),
(377,0,l),
(477,0,l),
(477,500,l)
);
},
{
closed = 1;
nodes = (
(363,-8,o),
(395,88,o),
(395,250,cs),
(395,411,o),
(353,508,o),
(223,508,cs),
(83,508,o),
(15,398,o),
(15,248,cs),
(15,90,o),
(83,-8,o),
(223,-8,cs)
);
},
{
closed = 1;
nodes = (
(153,72,o),
(115,138,o),
(115,248,cs),
(115,358,o),
(153,428,o),
(243,428,cs),
(338,428,o),
(377,353,o),
(377,250,cs),
(377,146,o),
(338,72,o),
(243,72,cs)
);
},
{
closed = 1;
nodes = (
(377,0,l),
(377,-82,o),
(326,-128,o),
(241,-128,cs),
(171,-128,o),
(134,-97,o),
(124,-54,c),
(32,-66,l),
(52,-170,o),
(132,-208,o),
(241,-208,cs),
(391,-208,o),
(477,-136,o),
(477,0,c)
);
}
);
userData = {
com.hugojourdan.ColorFlow = {
"0" = 0;
"1" = 0;
"10" = 0;
"11" = 0;
"2" = 0;
"3" = 0;
"4" = 0;
"5" = 0;
"6" = 0;
"7" = 0;
"8" = 0;
"9" = 0;
};
};
width = 507;
}
);
metricLeft = "=o";
metricRight = "=n";
unicode = 103;
}
{
glyphname = h;
kernLeft = l;
kernRight = n;
layers = (
{
layerId = m01;
shapes = (
{
closed = 1;
nodes = (
(30,0,l),
(130,0,l),
(130,399,l),
(130,800,l),
(30,800,l)
);
},
{
closed = 1;
nodes = (
(354,0,l),
(454,0,l),
(454,313,ls),
(454,409,o),
(424,508,o),
(284,508,cs),
(146,508,o),
(112,411,o),
(112,250,c),
(130,250,l),
(130,374,o),
(180,428,o),
(250,428,cs),
(323,428,o),
(354,369,o),
(354,313,c)
);
}
);
userData = {
com.hugojourdan.ColorFlow = {
"0" = 0;
"1" = 0;
"10" = 0;
"11" = 0;
"2" = 0;
"3" = 0;
"4" = 0;
"5" = 0;
"6" = 0;
"7" = 0;
"8" = 0;
"9" = 0;
};
};
width = 480;
},
{
associatedMasterId = m01;
layerId = "0275EC6F-A43E-4437-BC1D-02FA63395B1E";
name = "19. Jul 23, 15:18";
shapes = (
{
closed = 1;
nodes = (
(30,0,l),
(130,0,l),
(130,800,l),
(30,800,l)
);
},
{
closed = 1;
nodes = (
(354,0,l),
(454,0,l),
(454,338,ls),
(454,434,o),
(371,505,o),
(280,505,cs),
(193,505,o),
(120,412,o),
(120,294,c),
(130,301,l),
(130,354,o),
(186,425,o),
(241,425,cs),
(304,425,o),
(354,385,o),
(354,333,c)
);
}
);
userData = {
com.hugojourdan.ColorFlow = {
"0" = 0;
"1" = 0;
"10" = 0;
"11" = 0;
"2" = 0;
"3" = 0;
"4" = 0;
"5" = 0;
"6" = 0;
"7" = 0;
"8" = 0;
"9" = 0;
};
};
width = 480;
}
);
metricLeft = "=n";
metricRight = "=n";
unicode = 104;
}
{
glyphname = i;
kernLeft = n;
kernRight = n;
layers = (
{
layerId = m01;
shapes = (
{
closed = 1;
nodes = (
(44,0,l),
(144,0,l),
(144,500,l),
(44,500,l)
);
},
{
closed = 1;
nodes = (
(133,552,o),
(155,578,o),
(155,615,cs),
(155,652,o),
(133,677,o),
(96,677,cs),
(59,677,o),
(35,652,o),
(35,615,cs),
(35,578,o),
(59,552,o),
(96,552,cs)
);
}
);
userData = {
com.hugojourdan.ColorFlow = {
"0" = 0;
"1" = 0;
"10" = 0;
"11" = 0;
"2" = 0;
"3" = 0;
"4" = 0;
"5" = 0;
"6" = 0;
"7" = 0;
"8" = 0;
"9" = 0;
};
};
width = 190;
}
);
metricLeft = "=l";
metricRight = "=l";
unicode = 105;
}
{
glyphname = j;
layers = (
{
layerId = m01;
shapes = (
{
closed = 1;
nodes = (
(81,0,ls),
(81,-66,o),
(85,-123,o),
(24,-123,cs),
(10,-123,o),
(-15,-120,o),
(-40,-103,c),
(-40,-183,l),
(-20,-200,o),
(24,-208,o),
(56,-208,cs),
(177,-208,o),
(181,-95,o),
(181,0,cs),
(181,500,l),
(81,500,l)
);
},
{
closed = 1;
nodes = (
(167,552,o),
(191,577,o),
(191,615,cs),
(191,652,o),
(169,677,o),
(133,677,cs),
(97,677,o),
(72,653,o),
(72,615,cs),
(72,577,o),
(95,552,o),
(133,552,cs)
);
}
);
userData = {
com.hugojourdan.ColorFlow = {
"0" = 0;
"1" = 0;
"10" = 0;
"11" = 0;
"2" = 0;
"3" = 0;
"4" = 0;
"5" = 0;
"6" = 0;
"7" = 0;
"8" = 0;
"9" = 0;
};
};
width = 221;
}
);
metricLeft = "=i-70";
metricRight = "=i";
unicode = 106;
}
{
color = 3;
glyphname = k;
layers = (
{
layerId = m01;
shapes = (
{
closed = 1;
nodes = (
(306,0,l),
(409,0,l),
(220,270,l),
(410,499,l),
(304,499,l),
(113,270,l)
);
},
{
closed = 1;
nodes = (
(30,0,l),
(130,0,l),
(130,800,l),
(30,800,l)
);
}
);
userData = {
com.hugojourdan.ColorFlow = {
"0" = 0;
"1" = 0;
"10" = 0;
"11" = 0;
"2" = 0;
"3" = 0;
"4" = 0;
"5" = 0;
"6" = 0;
"7" = 0;
"8" = 0;
"9" = 0;
};
};
width = 410;
}
);
metricLeft = "=l";
metricRight = "=x";
unicode = 107;
}
{
glyphname = l;
layers = (
{
layerId = m01;
shapes = (
{
closed = 1;
nodes = (
(30,0,l),
(130,0,l),
(130,800,l),
(30,800,l)
);
}
);
width = 160;
}
);
unicode = 108;
}
{
glyphname = m;
kernLeft = n;
kernRight = n;
layers = (
{
layerId = m01;
shapes = (
{
closed = 1;
nodes = (
(30,0,l),
(130,0,l),
(130,399,l),
(130,500,l),
(30,500,l)
);
},
{
closed = 1;
nodes = (
(297,0,l),
(397,0,l),
(397,336,ls),
(397,432,o),
(353,508,o),
(257,508,cs),
(162,508,o),
(112,433,o),
(112,280,c),
(130,280,l),
(130,349,o),
(140,428,o),
(220,428,cs),
(277,428,o),
(297,388,o),
(297,336,c)
);
},
{
closed = 1;
nodes = (
(560,0,l),
(660,0,l),
(660,336,ls),
(660,432,o),
(622,508,o),
(526,508,cs),
(431,508,o),
(379,433,o),
(379,280,c),
(397,280,l),
(397,349,o),
(403,428,o),
(483,428,cs),
(540,428,o),
(560,388,o),
(560,336,c)
);
}
);
userData = {
com.hugojourdan.ColorFlow = {
"0" = 0;
"1" = 0;
"10" = 0;
"11" = 0;
"2" = 0;
"3" = 0;
"4" = 0;
"5" = 0;
"6" = 0;
"7" = 0;
"8" = 0;
"9" = 0;
};
};
width = 690;
}
);
metricLeft = "=n";
metricRight = "=n";
unicode = 109;
}
{
glyphname = n;
layers = (
{
layerId = m01;
shapes = (
{
closed = 1;
nodes = (
(91,0,l),
(191,0,l),
(191,500,l),
(91,500,l)
);
},
{
closed = 1;
nodes = (
(415,-2,l),
(515,-2,l),
(515,315,ls),
(515,411,o),
(432,500,o),
(341,500,cs),
(250,500,o),
(183,410,o),
(183,292,c),
(191,301,l),
(191,348,o),
(233,411,o),
(293,411,cs),
(354,411,o),
(411,371,o),
(415,315,c)
);
}
);
width = 600;
}
);
unicode = 110;
}
{
glyphname = o;
layers = (
{
layerId = m01;
shapes = (
{
closed = 1;
nodes = (
(392,-8,o),
(490,90,o),
(490,248,cs),
(490,398,o),
(394,508,o),
(254,508,cs),
(112,508,o),
(15,411,o),
(15,250,cs),
(15,104,o),
(108,-8,o),
(251,-8,cs)
);
},
{
closed = 1;
nodes = (
(173,72,o),
(115,146,o),
(115,250,cs),
(115,353,o),
(177,428,o),
(254,428,cs),
(341,428,o),
(389,361,o),
(390,248,cs),
(389,140,o),
(341,72,o),
(251,72,cs)
);
}
);
width = 505;
}
);
unicode = 111;
}
{
glyphname = p;
layers = (
{
layerId = m01;
shapes = (
{
closed = 1;
nodes = (
(30,-200,l),
(130,-200,l),
(130,500,l),
(30,500,l)
);
},
{
closed = 1;
nodes = (
(434,-8,o),
(492,90,o),
(492,248,cs),
(492,398,o),
(414,508,o),
(284,508,cs),
(132,508,o),
(112,411,o),
(112,250,cs),
(112,104,o),
(150,-8,o),
(284,-8,cs)
);
},
{
closed = 1;
nodes = (
(185,72,o),
(130,146,o),
(130,250,cs),
(130,353,o),
(174,428,o),
(251,428,cs),
(338,428,o),
(391,361,o),
(392,248,cs),
(391,140,o),
(353,72,o),
(263,72,cs)
);
}
);
width = 507;
}
);
metricLeft = "=n";
metricRight = "=o";
unicode = 112;
}
{
glyphname = r;
layers = (
{
layerId = m01;
shapes = (
{
closed = 1;
nodes = (
(30,0,l),
(130,0,l),
(130,500,l),
(30,500,l)
);
},
{
closed = 1;
nodes = (
(300,505,l),
(193,505,o),
(120,412,o),
(120,294,c),
(130,301,l),
(130,354,o),
(225,405,o),
(300,405,c)
);
}
);
userData = {
com.hugojourdan.ColorFlow = {
"0" = 0;
"1" = 0;
"10" = 0;
"11" = 0;
"2" = 0;
"3" = 0;
"4" = 0;
"5" = 0;
"6" = 0;
"7" = 0;
"8" = 0;
"9" = 0;
};
};
width = 315;
}
);
metricLeft = "=n";
metricRight = "=l/2";
unicode = 114;
}
{
color = 1;
glyphname = s;
layers = (
{
layerId = m01;
shapes = (
{
closed = 1;
nodes = (
(19,171,o),
(358,236,o),
(360,146,c),
(360,100,o),
(306,70,o),
(228,72,cs),
(148,74,o),
(123,127,o),
(113,164,c),
(15,152,l),
(35,76,o),
(104,-8,o),
(228,-8,cs),
(371,-8,o),
(448,51,o),
(446,154,cs),
(443,314,o),
(116,271,o),
(113,356,c),
(113,413,o),
(167,428,o),
(232,428,cs),
(300,428,o),
(338,393,o),
(347,355,c),
(446,368,l),
(430,439,o),
(358,508,o),
(232,508,cs),
(105,508,o),
(19,449,o),
(19,357,c)
);
}
);
userData = {
com.hugojourdan.ColorFlow = {
"0" = 0;
"1" = 0;
"10" = 0;
"11" = 0;
"2" = 0;
"3" = 0;
"4" = 0;
"5" = 0;
"6" = 0;
"7" = 0;
"8" = 0;
"9" = 0;
};
};
width = 461;
}
);
metricLeft = "=c";
metricRight = "=c";
unicode = 115;
}
{
glyphname = t;
kernLeft = t;
kernRight = t;
layers = (
{
layerId = m01;
shapes = (
{
closed = 1;
nodes = (
(372,112,l),
(351,95,o),
(322,71,o),
(276,71,cs),
(222,71,o),
(193,104,o),
(193,163,c),
(193,605,l),
(93,605,l),
(93,158,ls),
(93,34,o),
(195,-9,o),
(267,-9,cs),
(317,-9,o),
(347,12,o),
(372,32,c)
);
},
{
closed = 1;
nodes = (
(15,416,l),
(357,416,l),
(357,496,l),
(15,496,l)
);
}
);
userData = {
com.hugojourdan.ColorFlow = {
"0" = 0;
"1" = 0;
"10" = 0;
"11" = 0;
"2" = 0;
"3" = 0;
"4" = 0;
"5" = 0;
"6" = 0;
"7" = 0;
"8" = 0;
"9" = 0;
};
};
width = 387;
}
);
metricLeft = "=o";
metricRight = "=o";
unicode = 116;
}
{
glyphname = u;
kernLeft = u;
kernRight = u;
layers = (
{
layerId = m01;
shapes = (
{
closed = 1;
nodes = (
(444,500,l),
(344,500,l),
(344,101,l),
(344,0,l),
(444,0,l)
);
},
{
closed = 1;
nodes = (
(130,500,l),
(30,500,l),
(30,187,ls),
(30,91,o),
(60,-8,o),
(200,-8,cs),
(338,-8,o),
(362,89,o),
(362,250,c),
(344,250,l),
(344,126,o),
(303,72,o),
(233,72,cs),
(160,72,o),
(130,131,o),
(130,187,c)
);
}
);
userData = {
com.hugojourdan.ColorFlow = {
"0" = 0;
"1" = 0;
"10" = 0;
"11" = 0;
"2" = 0;
"3" = 0;
"4" = 0;
"5" = 0;
"6" = 0;
"7" = 0;
"8" = 0;
"9" = 0;
};
};
width = 474;
},
{
associatedMasterId = m01;
layerId = "9C4E6138-4511-472E-95B6-4417943C5D51";
name = "19. Jul 23, 14:47 - old";
shapes = (
{
closed = 1;
nodes = (
(447,505,l),
(347,505,l),
(347,5,l),
(447,5,l)
);
},
{
closed = 1;
nodes = (
(130,505,l),
(30,505,l),
(30,167,ls),
(30,71,o),
(113,0,o),
(197,0,cs),
(284,0,o),
(358,93,o),
(358,211,c),
(347,204,l),
(347,151,o),
(291,80,o),
(236,80,cs),
(180,80,o),
(130,115,o),
(130,172,c)
);
}
);
userData = {
com.hugojourdan.ColorFlow = {
"0" = 0;
"1" = 0;
"10" = 0;
"11" = 0;
"2" = 0;
"3" = 0;
"4" = 0;
"5" = 0;
"6" = 0;
"7" = 0;
"8" = 0;
"9" = 0;
};
};
width = 473;
}
);
metricLeft = "=n";
metricRight = "=n";
unicode = 117;
}
{
glyphname = v;
layers = (
{
layerId = m01;
shapes = (
{
closed = 1;
nodes = (
(202,1,l),
(301,1,l),
(490,499,l),
(390,499,l),
(250,132,l),
(110,500,l),
(12,500,l)
);
}
);
width = 500;
}
);
unicode = 118;
}
{
glyphname = w;
layers = (
{
layerId = m01;
shapes = (
{
closed = 1;
nodes = (
(134,1,l),
(234,0,l),
(332,335,l),
(416,1,l),
(516,0,l),
(663,499,l),
(563,499,l),
(465,132,l),
(385,499,l),
(285,499,l),
(191,132,l),
(110,500,l),
(10,500,l)
);
}
);
width = 673;
}
);
metricLeft = "=v";
metricRight = "=v";
unicode = 119;
}
{
glyphname = x;
kernLeft = x;
kernRight = x;
layers = (
{
layerId = m01;
shapes = (
{
closed = 1;
nodes = (
(176,250,l),
(2,0,l),
(109,0,l),
(240,180,l),
(369,0,l),
(472,0,l),
(303,250,l),
(470,499,l),
(364,499,l),
(240,310,l),
(106,499,l),
(0,499,l)
);
}
);
userData = {
com.hugojourdan.ColorFlow = {
"0" = 0;
"1" = 0;
"10" = 0;
"11" = 0;
"2" = 0;
"3" = 0;
"4" = 0;
"5" = 0;
"6" = 0;
"7" = 0;
"8" = 0;
"9" = 0;
};
};
width = 472;
}
);
metricLeft = "=v";
metricRight = "=v";
unicode = 120;
}
{
glyphname = y;
layers = (
{
layerId = m01;
shapes = (
{
closed = 1;
nodes = (
(201,0,l),
(301,0,l),
(490,499,l),
(390,499,l),
(250,132,l),
(110,500,l),
(12,500,l)
);
},
{
closed = 1;
nodes = (
(201,0,l),
(189,-57,o),
(168,-119,o),
(93,-119,cs),
(62,-119,o),
(29,-98,o),
(17,-88,c),
(17,-152,l),
(42,-174,o),
(74,-199,o),
(122,-199,cs),
(226,-199,o),
(261,-115,o),
(301,0,c)
);
}
);
width = 600;
}
);
unicode = 121;
}
{
glyphname = z;
kernLeft = z;
kernRight = z;
layers = (
{
layerId = m01;
shapes = (
{
closed = 1;
nodes = (
(0,500,l),
(0,419,l),
(231,419,l),
(0,50,l),
(0,0,l),
(359,0,l),
(359,80,l),
(128,80,l),
(359,449,l),
(359,499,l)
);
}
);
userData = {
com.hugojourdan.ColorFlow = {
"0" = 0;
"1" = 0;
"10" = 0;
"11" = 0;
"2" = 0;
"3" = 0;
"4" = 0;
"5" = 0;
"6" = 0;
"7" = 0;
"8" = 0;
"9" = 0;
};
};
width = 359;
},
{
associatedMasterId = m01;
layerId = "E2F89B17-919D-4288-8AE5-7CABA35D0254";
name = "19. Jul 23, 17:15";
shapes = (
{
closed = 1;
nodes = (
(2,0,l),
(102,0,l),
(401,499,l),
(301,499,l)
);
},
{
closed = 1;
nodes = (
(22,500,l),
(22,419,l),
(273,419,l),
(337,499,l)
);
},
{
closed = 1;
nodes = (
(135,80,l),
(68,0,l),
(381,0,l),
(381,80,l)
);
}
);
userData = {
com.hugojourdan.ColorFlow = {
"0" = 0;
"1" = 0;
"10" = 0;
"11" = 0;
"2" = 0;
"3" = 0;
"4" = 0;
"5" = 0;
"6" = 0;
"7" = 0;
"8" = 0;
"9" = 0;
};
};
width = 401;
}
);
metricLeft = "=v";
metricRight = "=v";
unicode = 122;
}
